<?xml version="1.0" encoding="utf-8"?>
<!-- Generator: Adobe Illustrator 24.0.2, SVG Export Plug-In . SVG Version: 6.00 Build 0)  -->
<svg version="1.1" id="Livello_1" xmlns="http://www.w3.org/2000/svg" xmlns:xlink="http://www.w3.org/1999/xlink" x="0px" y="0px"
	 viewBox="0 0 1024 1024" style="enable-background:new 0 0 1024 1024;" xml:space="preserve">
<g transform="translate(0.000000,1024.000000) scale(0.100000,-0.100000)">
	<path d="M4662,9341.4c-45-10-92-40-117-73c-31-42-30-140,3-185c27-39,49-48,151-68c84-16,100-26,84-52c-18-29-91-27-147,3l-48,25
		l-40-42c-21-23-39-45-39-48c0-15,102-71,148-81c101-21,213,13,257,79c36,52,35,129-1,172c-35,42-71,59-161,76c-41,8-77,14-79,14
		s-4,11-4,24c0,42,54,48,132,14c49-21,51-21,61-3c6,11,23,31,40,46l29,27l-34,25C4837,9340.4,4738,9360.4,4662,9341.4z"/>
	<path d="M5054,9318.4c-10-51-2-102,15-103c8-1,41-2,72-3l57-1l-6-188l-6-189l39-6c21-4,53-7,70-7h31l6,107c4,58,7,146,7,195v88h75
		h75v63v64l-107,6c-58,4-155,7-214,7h-108L5054,9318.4z"/>
	<path d="M4252,9324.4c-53-4-53-4-53-38c0-42,38-418,46-457c6-30,28-35,104-22l35,6l-6,86c-3,48-14,165-24,260
		c-15,145-21,172-34,170C4311,9328.4,4280,9326.4,4252,9324.4z"/>
	<path d="M5589,9319.4c0-7-7-92-15-188s-15-207-15-246c0-81,3-84,91-84h46l12,168c6,92,14,211,18,265l6,97h-71
		C5610,9331.4,5589,9327.4,5589,9319.4z"/>
	<path d="M5964,9120.4c-52-92-113-202-135-245c-46-90-49-84,58-97l54-6l15,39c15,38,18,40,57,39c23,0,63-4,90-7c49-7,50-8,65-57
		l16-49l73-11c69-11,72-10,72,9c0,23-119,509-129,524c-3,6-37,15-74,20l-68,9L5964,9120.4z M6125,9013.4l6-49l-41,6
		c-23,3-42,11-41,16c0,6,12,33,27,62C6107,9107.4,6113,9102.4,6125,9013.4z"/>
	<path d="M3634,9247.4c-66-12-120-26-120-31c1-22,18-128,50-308c19-104,35-192,35-195c0-4,78,5,119,15c22,6,23,8,16,62
		c-13,97-14,94,28,103c35,7,40,6,65-25c15-17,43-49,62-69l35-36l70,10c39,6,73,13,77,17c3,3-26,42-67,86l-73,79l24,29
		c71,84,40,222-60,268C3843,9276.4,3786,9275.4,3634,9247.4z M3827,9119.4c7-7,12-24,12-40c0-33-22-47-89-55c-53-6-50-8-65,59
		c-5,22-2,28,22,36C3745,9133.4,3813,9133.4,3827,9119.4z"/>
	<path d="M6600,9164.4c-43-163-111-446-111-461s12-22,61-32c35-8,63-9,68-4c4,5,19,61,34,124s31,121,36,128c5,9,37-41,96-153
		c92-175,95-178,174-191l38-6l15,58c92,351,110,421,114,435c3,12-9,20-54,33c-32,9-63,16-68,16c-6,0-25-55-44-122
		c-18-68-36-129-40-137c-5-10-35,40-93,155l-85,170l-52,12C6615,9206.4,6611,9205.4,6600,9164.4z"/>
	<path d="M9316,8773.4c-170,266-554,272-875,14c-136-109-222-231-352-500c-71-146-100-196-144-243c-88-95-225-150-423-169l-72-6
		l-85,81c-115,111-170,136-291,136c-117,0-174-24-248-105c-30-32-68-62-88-69c-20-6-85-58-155-124c-247-229-860-792-1168-1071
		c-234-212-567-517-664-609c-29-27-54-48-56-46c-5,5-110,200-236,439c-306,581-807,1440-1018,1750c-79,115-187,253-236,299
		c-20,19-36,38-36,42c0,4,21,12,46,18c62,16,113,43,145,78c27,28,59,84,59,102c0,5-28,18-62,29l-63,21l-28-35c-54-65-131-83-195-44
		c-82,50-81,188,3,240c38,24,117,27,156,6c25-13,28-11,69,37l43,49l-24,19c-63,49-175,62-264,31c-105-36-175-118-194-225
		c-6-34-8-72-5-84l6-23l-44,20c-86,38-177,53-313,54c-171,1-281-23-461-101c-82-34-82-34-133-19c-83,25-186,29-279,12
		c-247-44-453-234-562-517c-22-59-50-201-50-258c0-24-9-49-25-71c-88-120-73-329,38-520c41-70,45-83,57-189c24-228,83-412,210-657
		c125-243,241-404,434-603c253-260,493-430,850-601c218-105,552-227,869-317c54-15,99-31,100-34c1-3-79-79-178-169
		c-179-163-356-325-470-431c-33-30-85-78-115-104c-104-92-191-180-212-213c-13-22-40-42-82-61c-75-34-145-103-183-179
		c-26-52-28-66-28-172c0-109,2-119,32-183c18-38,42-82,54-98l21-29l-63-188c-73-220-123-326-187-394c-60-64-110-89-307-153
		c-281-92-454-187-597-330c-123-121-201-253-229-385c-6-31-9-99-7-157c4-93,8-109,42-177c129-263,448-351,737-205
		c213,107,378,280,543,567c105,185,139,234,202,292c71,64,156,111,269,149c109,36,204,46,310,32l80-10l82-79c59-56,105-91,160-118
		c75-37,82-39,178-39c114,0,165,17,242,83c25,20,68,51,96,67c28,17,65,50,82,74c27,38,30,51,30,113v71l190,161
		c208,177,628,525,687,570c31,23,48,28,100,29c50,2,71,7,101,28c36,25,231,199,406,362l84,79l91-91c84-83,92-95,95-133
		c3-53,34-142,65-187c55-79,271-323,570-645c272-293,629-669,665-701c62-56,117-78,206-83c94-5,164,17,238,73l44,34l109-112
		c60-62,180-187,267-279c136-144,168-172,225-200c62-31,74-33,167-33s105,2,167,33c122,60,189,161,196,298c10,181-27,236-373,560
		c-146,136-265,249-265,251c0,2,11,19,24,36c62,83,84,171,66,269c-15,88-51,142-155,231c-715,618-934,796-1221,989
		c-144,97-214,120-345,117l-97-3l-69,72l-70,72l196,177c108,98,227,208,266,244c62,58,343,313,539,488c91,82,423,385,731,668
		c347,318,393,375,418,516c21,123-37,282-157,430l-46,55l26,59c104,238,256,506,318,560c25,22,110,74,190,116
		c340,179,515,332,621,542C9423,8431.4,9420,8611.4,9316,8773.4z M6988,7855.4c20,18,63,34,97,35c12,1,39-12,60-27
		c49-36,225-223,339-362c344-419,416-511,408-523c-3-5-9-4-12,2c-5,7-23-6-49-34c-40-43-56-75-30-59c7,4,8,3,4-4c-11-18,4-37,16-21
		c8,11,9,10,4-3c-3-11,2-19,15-23c10-4,19-12,19-19c0-7,11-23,24-35c14-13,23-28,20-35c-2-6,4-12,15-12s17,4,15,8c-3,4,2,8,10,8
		c30,0,12-31-21-36c-7-1-24,13-38,32s-23,34-20,34c3,0-12,20-35,44c-22,24-78,90-123,148c-172,219-224,284-277,347
		c-48,58-258,296-409,462C6971,7836.4,6970,7839.4,6988,7855.4z M7902,6807.4c4-10,1-13-8-9c-8,3-12,9-9,14
		C7892,6824.4,7896,6823.4,7902,6807.4z M7879,6837.4c0-5-9-1-20,9s-17,22-14,27C7851,6882.4,7878,6853.4,7879,6837.4z M7909,6336.4
		c-6,3-10,10-10,16c0,14,7,11,14-7C7916,6337.4,7915,6333.4,7909,6336.4z M7857,6397.4c-10-3-20-1-23,5c-4,5-10,7-15,4
		c-5-3-23,13-39,36c-24,32-28,45-20,60c7,14,5,26-8,46c-20,31-35,44-42,37c-3-3,1-10,9-15c13-9,13-10,0-6c-8,2-14,13-13,23
		c1,10-9,33-23,51c-13,17-24,35-24,39c0,12,13-3,84-101c36-49,75-102,86-117c12-16,18-33,14-40c-4-7-4-10,1-6c10,10,37-11,29-23
		c-3-5-11-9-17-9c-7,0-6,4,3,11C7872,6401.4,7871,6402.4,7857,6397.4z M7633,6636.4c-9-14-21-25-27-25c-6,0,0,11,13,25
		c13,14,25,25,27,25C7648,6661.4,7642,6650.4,7633,6636.4z M7636,6292.4c0-11-5-18-9-15c-4,3-5,11-1,19
		C7633,6317.4,7638,6315.4,7636,6292.4z M7492,6227.4c-25-25-52-43-61-41c-9,2-19,4-21,4c-3,1,3,7,14,14c10,8,15,19,11,25
		c-5,8-1,10,9,6c9-4,14-13,10-22c-4-12-3-13,10-2c8,7,13,16,10,20c-3,5,3,11,14,15c17,5,35,38,32,58c-1,5,3,6,9,2c6-3,8-11,5-16
		c-3-5,1-6,9-3c9,3,13,11,9,17c-3,6-1,7,5,3c13-8,5-36-10-36C7541,6271.4,7517,6251.4,7492,6227.4z M7514,6164.4c-8,0-12,4-9,9
		c3,4,7,8,9,8c2,0,6-4,9-8C7526,6168.4,7522,6164.4,7514,6164.4z M7401,6369.4c-5,7-16,10-25,7c-19-8-30-33-20-47c4-7,1-8-6-4
		c-7,5-10,15-7,23c3,8,1,11-4,8c-6-3-10-12-10-19c0-7-16-26-35-43c-19-17-35-29-35-27c0,3-5,2-11-2c-8-4-7-9,2-16c10-7,9-8-5-4
		c-20,7-64-30-58-48c2-5-3-4-12,3c-9,7-17,8-20,2c-3-5-3-11,1-14c5-2,3-2-4-1c-14,4-27-12-16-19c5-2,3-2-4-1c-15,4-35-20-25-31
		c4-5,2-5-4-2c-7,4-18-1-25-10c-12-14-12-16,2-11c9,3,16,1,16-6c0-6-7-12-16-12c-48-2-58-13-56-60l2-35l-23,22c-25,23-34,14-11-11
		c6-8,2-6-10,4l-22,18l32,28c18,15,36,29,41,31c5,2,38,34,74,72c36,37,67,65,70,63c2-3,17,11,34,30c16,19,34,31,39,28s8-1,7,4
		c-2,5,22,31,52,58c30,27,59,55,63,61c11,18,30,16,24-2c-4-8-2-17,3-20c6-4,10-12,10-18C7409,6359.4,7406,6360.4,7401,6369.4z
		 M7409,6161.4c0.6-3.9-0.8-10-4-10c-3,0-8,5-11,10c-1.8,3.7-1.8,6.6-0.4,8.3c1.4,1.6,3.7,1.7,4.4,1.7
		C7402.8,6171.5,7408.2,6167.1,7409,6161.4z M7282,6074.4c-7-2-10,4-7,12c7,17,24,20,24,5c0-5,8-2,18,8c10,9,27,22,38,29
		c12,8,13,10,3,7c-9-3-21,1-27,8c-8,10-4,13,18,13c15,0,27-5,26-10c-1-6-21-30-44-54c-24-25-42-38-40-30
		C7293,6070.4,7289,6075.4,7282,6074.4z M7006,5869.4c-3-7-5-2-5,12s2,19,5,13C7008,5887.4,7008,5875.4,7006,5869.4z M7407,6423.4
		c-8,3,3,19,27,39c21,19,43,39,49,45c8,9,13,9,18,0c5-7,8-7,8,3c0,8,3,11,6,8c4-4,2-13-5-20c-6-8-8-23-4-33c6-16,5-17-9-4
		c-9,8-14,18-11,23c9,15-7,6-30-17c-19-19-21-26-11-30c8-3,14-11,14-17c0-7-9-4-22,7c-19,17-21,17-15,2c3-10,1-20-5-24c-6-4-8-3-4,4
		C7416,6414.4,7414,6421.4,7407,6423.4z M7550,6212.4c18,11,29,11,29,0c0-14-18-23-31-15C7540,6201.4,7541,6206.4,7550,6212.4z
		 M7574,6554.4c-4-5-5-2-1,5c4,6,3,12-3,12c-6,0-15-9-21-20s-17-20-25-20c-8,0,1,15,23,35c20,19,37,35,38,35c0,0,0-9-1-20
		S7579,6558.4,7574,6554.4z M7594,6312.4c3-5,2-12-3-15c-5-3-9,1-9,9C7582,6323.4,7585,6325.4,7594,6312.4z M7587,6239.4
		c7,2,9,9,6,14c-4,7-2,8,4,4c6-4,9-13,6-21c-4-8-11-12-17-8C7578,6233.4,7579,6236.4,7587,6239.4z M2237,8681.4
		c144,44,250,49,390,21c229-48,410-185,609-462c206-288,654-1054,1033-1764c67-126,153-284,190-350c109-194,103-174,69-215l-29-35
		l-25,30c-136,162-295,389-786,1125c-697,1045-878,1246-1415,1565l-107,64L2237,8681.4z M3164,6064.4l-80,78l106-78
		c58-43,159-115,225-161c65-46,183-129,261-185c78-56,183-131,234-167c149-106,140-88,76-143l-56-47l-63,52
		C3731,5525.4,3453,5783.4,3164,6064.4z M3343,5692.4c-2-2-12,3-21,11c-10,9-83,51-163,93c-80,43-249,138-376,212l-230,133l-220,228
		c-355,367-452,479-574,661c-190,285-258,561-214,879c4,23,8,42,10,42c3,0,20-7,39-14c33-14,35-18,35-60c0-244,191-587,564-1016
		c229-262,913-959,1084-1105C3316,5723.4,3346,5694.4,3343,5692.4z M3854,5766.4c-121,89-330,240-465,336c-642,460-776,564-961,748
		c-331,332-590,720-632,949c-7,37-6,38,31,15c136-86,528-400,757-607c376-338,823-786,1285-1286c79-85,181-194,227-241
		c83-84,83-85,64-103C4136,5556.4,4171,5534.4,3854,5766.4z M3879,6126.4c-740,805-1516,1522-1926,1780c-49,30-84,55-78,55
		c5,0,53-16,106-35c197-70,387-183,583-346c55-46,215-198,355-339c688-689,1399-1410,1424-1443l29-38l-33-34c-19-19-37-35-42-35
		C4287,5691.4,4105,5880.4,3879,6126.4z M2189,8441.4c3,0,48-26,100-58c354-216,609-492,1045-1132c43-63,102-149,130-190
		c28-41,107-158,175-260c68-102,137-203,154-225l30-40l-28,25c-48,43-442,445-659,671c-318,333-517,513-717,648
		c-176,119-295,174-489,226c-51,13-96,26-98,29c-9,9,55,91,114,147C2019,8352.4,2151,8438.4,2189,8441.4z M1832,8561.4
		c56,33,82,33,152,4c19-8,35-18,35-22c-1-4-26-23-57-42c-104-66-221-197-282-318l-22-43l-47,7c-26,3-49,8-51,11c-9,7,20,98,51,161
		C1650,8397.4,1761,8519.4,1832,8561.4z M1194,8123.4c43,199,177,374,348,454c74,34,86,30,43-13c-80-79-174-232-216-350
		c-21-59-23-61-68-73c-26-6-62-20-80-31l-34-19L1194,8123.4z M1205,7641.4c-7,77,7,239,24,271c11,20,90,51,145,58c6,1,10-82,10-231
		c0-212,2-241,23-318c24-88,78-223,120-300c80-146,250-376,403-545l64-70l-94,80C1455,6962.4,1236,7294.4,1205,7641.4z M3375,5241.4
		c-4,0-79,25-169,56c-661,227-1031,443-1356,792c-208,223-388,483-470,683c-66,161-66,161,112-16c89-89,205-196,257-236
		c185-144,354-258,550-369c76-43,122-81,235-190c210-204,494-448,753-647C3339,5274.4,3379,5241.4,3375,5241.4z M3274,5521.4
		c-229,172-228,171-115,110c52-28,208-107,345-177c138-69,269-137,293-151l43-25l-42-43c-24-24-50-44-57-44
		C3724,5191.4,3533,5326.4,3274,5521.4z M2115,2031.4c-1,0-3,13-3,29c0,17,3,30,6,29c19-2,24,4,11,12c-9,6-10,10-3,10c6,0,14-4,17-9
		C2148,2095.4,2123,2031.4,2115,2031.4z M2182,2146.4c-3-9-8-14-10-11c-3,3-2,9,2,15C2183,2166.4,2189,2163.4,2182,2146.4z
		 M2205,2185.4c-4-9-9-15-11-12c-3,3-3,13,1,22c4,9,9,15,11,12C2209,2204.4,2209,2194.4,2205,2185.4z M2273,2285.4
		c-9-13-20-24-26-24c-5,0,0,10,11,22c11,11,18,26,14,31c-3,6-1,7,5,3C2286,2312.4,2284,2303.4,2273,2285.4z M2314,2341.4
		c-5,0,2,11,15,25c22,24,30,29,30,22C2359,2380.4,2321,2341.4,2314,2341.4z M2440,2451.4c-6,0-11,5-11,10c0,6,2,10,4,10
		c3,0,8-4,11-10C2447,2456.4,2445,2451.4,2440,2451.4z M2622,2785.4c-3,3-2,9,2,15c9,16,15,13,8-4
		C2629,2787.4,2624,2782.4,2622,2785.4z M2664,2671.4c-3-5-14-10-23-10c-15,0-15,2-2,10C2659,2684.4,2672,2684.4,2664,2671.4z
		 M2671,2849.4c-8-8-9-4-5,13c4,13,8,18,11,10C2679,2865.4,2676,2854.4,2671,2849.4z M2679,2936.4c0-4-9,3-19,16l-20,24l11-42
		c7-30,7-46-2-60c-10-16-11-16-6,0c3,9,1,17-4,17s-12-16-16-35c-3-19-10-32-15-29c-11,6-7-75,4-93c5-7,4-13-2-13c-5,0-12-17-14-37
		c-3-27-4-24-2,9c1,34-1,45-11,41c-8-3-14-26-16-61l-3-56l-58-33c-66-39-151-123-241-238c-65-83-92-125-88-137c1-5-5-8-14-8
		c-11,0-14-5-10-17c4-10,4-14,0-11c-7,8-71-82-67-94c2-5-1-7-5-5c-4,1-39-34-78-78c-111-126-256-243-356-289c-105-48-131-57-174-63
		c-24-3-41-10-38-15s-7-6-23-3l-28,7l29-16c47-26,133-20,224,15c44,16,86,37,92,44c7,8,17,12,22,9s17,1,26,9c9,7,25,17,34,20
		c12,4,16,13,12,24c-3,10-2,14,3,8c13-16,45-15,39,0c-3,8,0,12,7,10c13-5,73,74,68,90c-1,6,3,4,10-2c15-15,33-17,24-3
		c-3,6,0,13,9,16c9,3,12,12,9,22c-4,9-3,14,2,10c11-11,36,12,28,26c-3,6-3,8,2,4c4-4,21,13,37,37c17,25,35,48,41,52c5,3-18-36-54-88
		c-71-105-199-237-284-293c-179-119-351-126-466-19c-131,122-102,340,70,525c126,137,274,220,551,311c91,30,188,66,216,80
		c165,84,276,243,370,530c21,64,41,117,44,117c3,0,21-28,42-63c20-34,66-101,102-149c35-48,61-90,55-94c-5-3-8-2-7,3
		c2,4-12,23-30,42C2694,2929.4,2679,2941.4,2679,2936.4z M2091,2029.4c-8-8-9-4-5,13c4,13,8,18,11,10
		C2099,2045.4,2096,2034.4,2091,2029.4z M1713,1703.4c9-15-22-42-47-41l-22,2l22,4c26,5,53,33,32,33c-8,0-5,6,7,15c24,18,29,18,45-1
		c11-13,9-14-16-8C1715,1712.4,1708,1710.4,1713,1703.4z M1749,1731.4c-5,0-10,5-10,10c0,6,5,10,10,10c6,0,10-4,10-10
		C1759,1736.4,1755,1731.4,1749,1731.4z M1639,1651.4c0-5-4-10-9-10s-18-3-28-6c-16-6-16-5,2,9C1627,1663.4,1639,1665.4,1639,1651.4
		z M1546,1615.4c-3-3-12-4-19-1c-8,3-5,6,6,6C1544,1621.4,1550,1618.4,1546,1615.4z M2728,2692.4c-23-7-43-10-46-7c-3,3,6,8,20,11
		c13,4,24,12,24,18c-1,24,3,47,8,47c2,0,11-13,19-29l15-28L2728,2692.4z M2789,2816.4c-6,3-10,10-10,16c0,14,7,11,14-7
		C2796,2817.4,2795,2813.4,2789,2816.4z M2898,2698.4c-9,7-20,9-24,5c-5-4-5-2-2,5c4,6-10,25-33,44c-33,27-44,49-24,49c3,0,3-4-1-9
		c-3-5,3-13,12-16c10-4,34-25,53-48C2898,2705.4,2907,2692.4,2898,2698.4z M3685,2403.4c-5,4-18,1-30-7c-23-17-81-21-71-5
		c3,6-1,7-10,4c-8-4-27,2-43,12c-15,10-33,19-40,20c-18,3-70,49-211,188c-187,184-291,303-456,522c-301,398-374,541-318,624
		c21,33,65,80,73,80c4,0,29-46,55-102c50-106,150-277,224-383c23-33,54-78,68-100c14-22,41-58,59-79c18-21,31-43,27-49c-3-6-1-7,5-3
		c6,3,15-1,20-10c13-23-5-42-35-36c-26,5-33-22-8-32c8-3,15-1,15,5c0,6,5,7,11,4c6-4,17,1,25,11c11,14,10,9-2-18l-17-36l109-138
		c107-136,329-375,368-396c16-9,24-6,42,15c21,25,23,25,38,8c9-10,13-20,10-23c-3-3,0-9,7-14c8-4,10-3,5,4c-17,27,13,9,49-30
		C3676,2415.4,3690,2399.4,3685,2403.4z M3568,2834.4c13,16,21,21,21,13c0-2-8-10-17-17C3556,2817.4,3555,2818.4,3568,2834.4z
		 M3562,2866.4c0,17,3,19,12,6c3-5,2-12-3-15C3566,2854.4,3562,2858.4,3562,2866.4z M3597,2799.4c6,1,12-4,12-12c0-8,6-16,14-19
		c8-3,20-16,27-29c7-15-5-7-34,21c-26,24-44,48-41,53c8,12,14,10,12-4C3585,2802.4,3590,2797.4,3597,2799.4z M3676,2764.4
		c-4,12-2,14,10,10c12-5,15-2,11,8c-4,11,1,15,23,13c16-1,27,1,24,5c-5,9,35,47,75,74c33,21,36,21,36-3c0-10-2-17-4-16
		c-2,2-16-8-31-22c-38-38-141-126-150-130c-5-1-8,11-9,28c0,20,3,28,10,24C3678,2750.4,3680,2754.4,3676,2764.4z M3713,3086.4
		c11,8,25,15,30,15c6,0,2-7-8-15c-11-8-25-15-30-15C3699,3071.4,3703,3078.4,3713,3086.4z M3827,3171.4c3,0-4-9-16-20
		c-12-11-25-20-29-20C3773,3132.4,3818,3171.4,3827,3171.4z M3842,2551.4c-13,0-56,47-59,64c-1,7,4,13,12,13c7,0,12-4,11-8
		c-3-11,17-12,21,0c2,5-6,15-18,21c-17,9-25,8-39-4c-10-9-21-13-24-10c-4,4,13,24,36,44c23,21,44,36,47,33c3-3-1-8-8-10
		c-10-4-10-8-1-19c7-8,9-17,6-21c-4-3-2-12,4-20c9-10,8-18-6-33c-10-11-15-21-12-21c4-1,12-2,19-3
		C3844,2576.4,3855,2551.4,3842,2551.4z M3854,2584.4c-9,8-10,16-3,25c14,17,16,16,16-12C3867,2578.4,3864,2575.4,3854,2584.4z
		 M3872,2734.4c3-5-1-10-10-10c-11,0-6,9,15,26c18,14,51,43,74,63c55,48,59,48,17-1c-19-22-40-40-47-40c-7-1-10-5-7-11c4-6-1-7-11-3
		c-13,5-16,3-11-10c4-12,2-14-10-10C3872,2742.4,3868,2740.4,3872,2734.4z M3878,2901.4c6,0,11-4,11-10c0-5-2-10-4-10
		c-3,0-8,5-11,10C3871,2897.4,3873,2901.4,3878,2901.4z M3900,3098.4c-10-9-11-8-5,6c3,10,9,15,12,12
		C3910,3113.4,3907,3105.4,3900,3098.4z M3923,2929.4c28,30,36,37,36,29c0-2-15-16-32-33l-33-29L3923,2929.4z M4006,3018.4
		c-11-4-16-3-12,3c7,12,16,12,34,1c10-7,8-12-10-25c-27-19-39-20-39-5c0,5,4,8,9,5c5-3,15,2,22,11
		C4022,3023.4,4022,3024.4,4006,3018.4z M4015,2761.4c2,0,4-4,4-10c0-5-5-10-11-10c-5,0-7,5-4,10
		C4007,2757.4,4012,2761.4,4015,2761.4z M3959,2717.4c0-2-7-7-16-10c-8-3-12-2-9,4C3940,2721.4,3959,2725.4,3959,2717.4z
		 M4100,2774.4c-19-15-46-39-60-52c-14-14-32-25-41-26c-29-3-60-16-60-27c0-6,11-3,25,6c42,28,27,3-20-32c-24-19-49-31-55-27
		c-15,9,19,35,37,28c7-3,13,0,13,6c0,6-4,11-10,11c-19,0-10,16,21,34c16,10,36,15,44,12c8-3,12,0,9,8c-3,7,10,18,31,26
		c39,15,88,60,50,46c-11-4-16-4-12,0c4,5-3,14-15,21c-29,16-18,17,19,1c15-6,35-10,43-9C4127,2801.4,4119,2789.4,4100,2774.4z
		 M4039,2770.4c0,6,5,11,10,11c6,0,10-2,10-4c0-3-4-8-10-11C4044,2763.4,4039,2765.4,4039,2770.4z M4115,2939.4c-12-11-11-16,2-32
		c16-18,16-18-6-7c-18,10-27,10-38,1c-7-7-11-17-7-23c3-5,1-7-5-3c-6,3-18-1-27-10c-9-9-18-14-21-12c-6.8,7.6,119.1,112.9,166.9,143
		c-0.2-2.4,0.2-5.9,1.1-11c2-13-3-19-17-19c-17,0-20-6-18-35c1-22-1-30-7-21c-4,8-6,20-3,28C4142,2954.4,4132,2955.4,4115,2939.4z
		 M4084,3071.4c3-5,1-10-4-10c-6,0-11,5-11,10c0,6,2,10,4,10C4076,3081.4,4081,3077.4,4084,3071.4z M4089,3111.4c8,5,15,10,15,10
		s0-11,0-25c0-22-2-23-15-9C4076,3100.4,4076,3103.4,4089,3111.4z M4164,3171.4c3,6,8,10,11,10c2,0,4-4,4-10c0-5-5-10-11-10
		C4163,3161.4,4161,3166.4,4164,3171.4z M4217,2870.4c-49-45-77-62-63-40c3,5,1,12-5,16c-19,12-10,23,16,20c25-2,26,0,21,34
		c-3,20-3,32-1,26c2-5,22-10,45-9l41,1L4217,2870.4z M4232,3201.4c-4,0,9,11,30,26c22,14,35,30,31,36c-5,8-1,9,10,5c13-5,17-3,13,7
		c-4,11-1,13,11,9c15-6,16-5,2,13c-14,18-14,18,4,4c17-14,17-15-10-38c-16-13-45-38-64-55c-48-43-83-69-48-34
		C4227,3189.4,4236,3201.4,4232,3201.4z M4245,3246.4c10,8,23,15,28,15c6,0,1-7-10-15c-10-8-23-15-28-15
		C4229,3231.4,4234,3238.4,4245,3246.4z M4416,3403.4c19,21,49,24,56,6c2-7,4,2,4,20c0,34,8,50,20,38c4-4,1-16-6-28
		c-10-17-10-19,1-16c7,3,19,17,26,32c9,18,19,25,29,22c9-4,13-1,10,6c-2,7-15,12-28,11c-14-2-18,0-9,4c8,3,19,12,23,19
		c4,8,10,14,13,14s2-5-1-11c-4-6,0-9,11-7c35,6,19-21-49-82c-61-54-99-77-82-50c3,6,13,10,21,10s12,5,9,10c-8,13-16,12-39-5
		c-15-11-16-18-8-28c9-11,6-19-13-37c-14-13-25-18-25-11c0,8-7,10-22,5c-21-6-21-6-4,11c15,15,19,16,27,4c5-8,9-12,10-9
		C4398,3376.4,4402,3388.4,4416,3403.4z M4399,3431.4c19,12,23,12,15,0c-3-5-12-10-18-10C4389,3421.4,4390,3425.4,4399,3431.4z
		 M4632,3558.4c-3-6-1-7,5-3c9,5,9,13,2,26c-8,16-8,18,5,14c8-3,12-10,9-15c-8-13,10-11,26,4c12,10,12,9,0-6c-22-29-49-40-66-26
		c-20,17-17,28,6,22C4630,3571.4,4636,3564.4,4632,3558.4z M4614,3711.4c-3,6-1,10,4,10c6,0,11-4,11-10c0-5-2-10-4-10
		C4622,3701.4,4617,3706.4,4614,3711.4z M4626,3367.4c4-4,0-4-9-1c-14,5-15,10-5,21c16,17,33,18,18,1
		C4624,3380.4,4622,3371.4,4626,3367.4z M4609,3521.4c0-5-2-10-4-10c-3,0-8,5-11,10c-3,6-1,10,4,10
		C4604,3531.4,4609,3527.4,4609,3521.4z M4613,3345.4c30-29,19-33-14-4c-13,11-18,20-12,20C4593,3361.4,4605,3354.4,4613,3345.4z
		 M4613,3288.4c-7,3-14,9-14,14c0,14,17,10,23-5C4626,3287.4,4623,3284.4,4613,3288.4z M4573,3586.4c-23-17-34-19-34-4c0,5,5,7,10,4
		c6-3,10-1,10,4c0,6,8,11,17,11C4591,3601.4,4590,3599.4,4573,3586.4z M4543,3264.4c6-16,6-16-12,0c-21,19-38,11-21-10
		c9-9,8-13,0-13c-6,0-11,4-11,10c0,5-7,7-15,3c-13-5-13-8,5-20c12-8,29-12,38-9c16,6,16,5,0-7c-10-8-15-17-11-20c3-4,1-7-5-7
		c-5,0-19-3-29-6c-17-6-17-6,0,8c18,13,18,14-1,31c-18,17-20,17-33,0c-12-15-12-16,4-10c11,4,16,3,12-4c-4-5-16-7-27-3
		c-12,4-18,2-14-4c3-5-7-22-21-38c-15-16-27-32-25-36c1-4-5-5-13-2c-18,7-21-21-4-32c8-5,6-10-5-16c-9-5-21-6-27-3
		c-12,8-41-14-34-25c2-4-9-6-25-4c-25,3-32-1-46-31c-14-29-19-33-31-23c-3.4,2.9-6,4.7-7.9,5.6c6.5,3.9,11.1,5.9,12.9,5.4
		c8-3,10,1,5,14c-3,10-3,15,1,11c5-4,24,11,44,33c20,21,42,39,49,39c7,0,13,4,13,8c0,5,12,14,26,20c14,7,22,17,19,22c-4,6-3,9,2,8
		c4-2,9,1,10,5c1,4,25,27,53,50c28,23,70,58,93,78c36,32,43,35,56,22c12-13,12-16,0-24c-8-5-18-9-23-9
		C4541,3281.4,4540,3273.4,4543,3264.4z M4396,3099.4c-3-8-6-5-6,6c-1,11,2,17,5,13C4398,3115.4,4399,3106.4,4396,3099.4z
		 M4188,3331.4c-5,0-7,5-4,10c3,6,8,10,11,10c2,0,4-4,4-10C4199,3336.4,4194,3331.4,4188,3331.4z M4235,2936.4c-3,8,5,12,22,11
		c14-1,27-6,29-12C4291,2919.4,4241,2920.4,4235,2936.4z M4438,3054.4c-16-13-33-22-38-19c-5,4-13,1-17-5c-5-8-3-9,7-4c8,5,5-1-5-14
		c-11-12-26-19-33-16c-8,2-12,1-9-4c9-14-38-51-53-42c-18,11-7,41,14,41c12,0,15,6,10,19c-4,14,0,21,15,26c12,4,24,4,27,1
		c4-3-1-6-10-6c-9,0-18-4-21-9s5-8,18-7c20,1,23,5,19,29c-3,19,0,27,11,27c8,0,18-4,21-10c3-5,12-10,18-9c9,0,9,2,0,6
		c-23,9-14,25,9,17c20-6,21-5,9,10c-11,14-11,16,1,16c8,0,19-5,25-11C4465,3081.4,4460,3072.4,4438,3054.4z M4495,3103.4
		c-14-14-19-14-50,3c-34,18-35,20-18,38c16,18,17,18,34-3c10-12,15-27,11-33c-3-6-1-7,6-3c6,4,9,12,6,17c-3,5,1,6,10,3
		C4509,3119.4,4509,3117.4,4495,3103.4z M4598,3185.4c-8-10-15-12-17-5c-2,6-8,11-14,11c-6,0-8-7-4-15c6-16-39-53-51-42
		c-3,4,7,11,22,17c15,6,26,12,24,14c-7,7-59-6-59-15c0-5-7-9-16-9c-27,0,3,29,40,39c17,4,30,13,29,20c-2,6,4,11,12,11
		c8,0,15-5,15-11c0-6,7-8,16-5C4610,3201.4,4610,3199.4,4598,3185.4z M4632,3224.4c-7-2-19-2-25,0c-7,3-2,5,12,5
		S4638,3227.4,4632,3224.4z M4738,3305.4c-6-8-15-12-19-9c-4,3-10-4-13-15c-3-13-11-18-20-14c-8,3-17-1-20-9c-3-9-16-12-37-9
		c-37,5-26,25,14,25c14,0,23,4,20,9c-3,5,2,8,12,6c12-2,18,2,16,10c-1,8,2,11,7,8c5-4,13,3,16,14c5,17,9,19,21,9
		C4746,3321.4,4746,3315.4,4738,3305.4z M4715,3459.4c19,0,22-3,12-12c-7-6-17-16-23-23c-7-9-10-6-11,11
		C4692,3454.4,4696,3459.4,4715,3459.4z M5910,3854.4l-38-42l-62,63l-63,63l44,41c23,23,48,42,54,42c6,0,32-22,58-50
		c25-27,46-55,46-62C5948,3902.4,5931,3877.4,5910,3854.4z M6001,4137.4c-16-10-26,14-12,27c10,9,11,9,6-3c-4-8,1-4,11,10
		c31,42,65,80,71,80c4,0,30-23,59-52c29-29,53-55,53-58c0-4-26-28-57-55c-31-27-54-42-50-33c4,11,2,15-6,12c-16-6-79,55-70,69
		C6009,4139.4,6007,4141.4,6001,4137.4z M6483,4051.4c39,0,77-8,104-20c90-41,407-279,666-499c88-75,193-164,234-199
		c42-34,156-133,255-220c98-86,189-166,202-177c57.9-49.2,54.5-114.7-16.7-215.8c-4.2-7.5-8.8-14.7-13.9-21.6
		c-11.1-25.1-29.1-61-57.5-99.8c-41.3-56.7-83.4-90.7-113.3-114.5c-112.4-89.6-215.8-165.3-276.4-208.9
		c-42.6-47.8-112.2-111.2-186.2-100.4c-59.6,8.6-76.3,66.1-177,173c-82,87-187,199-235,248c-201,211-295,313-491,527
		c-352,387-370,411-371,498c-0.9,61.1,26.5,108.1,129.3,210.4c1.8,2.4,3.6,4.8,5.4,7.2c6.3,8.3,13.1,14.4,20.7,18.4
		c5.7,5.5,11.5,11.1,17.6,16.9C6325,4014.4,6389,4051.4,6483,4051.4z M7952,6257.4c-8-4-27-21-42-36c-6.7-7.2-20.7-20.7-37.9-37
		c-36.7-62.3-111-114.1-167.6-155.4c-36.2-33.4-75.4-69.7-110.5-102.6c-202-189-280-261-375-345c-47-41-114-102-150-135
		c-36-34-110-101-165-150c-55-50-102-92-105-96c-4-4-192-177-330-304c-36-34-238-216-286-260c-6-5-40-37-75-71c-35-33-93-87-129-119
		c-69-62-145-133-416-391c-189-180-438-407-583-532c-53-46-122-108-153-138c-32-30-61-54-65-54c-5,0-17,8-28,16l-20,16l20-6
		c24-6,60,13,60,34c0,8,18,24,40,36c22,11,40,27,40,35c0,15,17,35,107,131c32,34,54,66,51,71c-3,6-1,7,5,3c10-6,51,31,268,240
		c71,69,89,92,61,81c-8-3-14,1-14,9c0,7,5,10,10,7c5-3,14,1,19,8c8,11,9,10,4-3c-9-28,5-21,50,23c23,23,40,47,38,54c-3,7,0,16,7,21
		c9,5,10,2,6-9c-7-20,4-22,21-5c15,15,16,32,2,23c-5-3-10-1-10,5c0,7,7,9,16,6c12-5,37,13,83,56c147,139,329,303,389,350
		c20,16,39,33,42,37c1.5,2,15.5,15.3,36.7,34.8c-2,0.5-3.9,1.2-5.9,1.9c-38-36.5-77-71.9-118.4-104.8c-25.9-20.5-66.2-9.9-81.9,13.3
		c-35.7-34.4-71.3-68.8-107.7-102.3c-2.1-5.9-5.3-11.5-9.9-16.6c-67.7-75.5-151.1-133.4-233.5-191.9c-5-7.8-8.3-18.1-7.4-24.4
		c2-8-3-13-11-11c-7,2-20-6-28-18c-8-11-19-20-26-20c-6,0,9,20,33,45c0.3,0.3,0.6,0.6,0.8,0.9c-4.3-3.1-8.6-6.2-12.8-9.3
		c-93.7-68.6-187.6-139.3-287.9-198.4c-47.7-42.8-96.3-84.7-144.8-126.7c2.5-14.2-1.1-29.2-14.2-40.9
		c-42.9-38.3-88.4-73.3-133-109.6c-5.8-4.7-12.2-7.9-18.6-9.8c-32.8-27.9-65.8-55.4-101-80.1c-47.7-33.4-99.7,39.7-60.6,78.5
		c29.7,29.5,60.2,58.2,91.1,86.4c-14.5,14.6-21.6,38.6-14.6,59c-33.1-30.4-47.6-35-14.3,0c31,33,7,33-26,0c-14-14-29-25-35-25
		s-7-5-3-11c4-8,9-7,14,2c6,9,12,8,26-6c17-17,17-17-4-11c-18,6-21,4-15-11c4-13,1-12-15,6c-20,22-27,21-23-2c1-5-3-6-9-2
		c-5,3-10,1-10-5c0-5-16-18-35-27c-33-16-34-18-18-35c15-17,14-18-15-14c-17,2-29,0-26-5c2-4-9-30-26-56c-16-26-30-40-30-31
		s4,18,9,20c4,1,12,14,16,28c5,17-3,10-24-20c-17-25-45-55-63-68c-104-73-137-100-130-107c4-5,2-5-5-2c-6,4-17,1-25-6
		c-7-7-33-27-58-44c-25-17-63-48-85-68c-35-33-36-35-10-20l30,16l-24-20c-12-12-27-19-31-16c-5,3-21-7-37-21c-15-15-22-24-16-20
		c9,5,11,2,7-9c-5-12-9-13-20-4c-17,14-19-2-2-19c9-9,9-12,1-12c-7,0-15,4-18,10c-3,6-16,0-30-13c-13-12-35-30-50-40
		c-14-11-24-22-21-25c4-3,17,5,31,18c14,13,25,20,25,15c0-16-44-45-61-40c-10,3-25-2-36-12c-10-10-26-25-35-32c-16-12-17-10-12,25
		c2,21,7,40,11,43c3,3,3-4,0-17c-3-15-1-22,6-19c7,3,11,10,9,17c-2,7,1,16,5,19c10,7,43,58,43,66c0,3-10,0-22-6c-23-12-23-12-4,9
		c10,12,22,19,26,17c4-3,15,6,24,20c9,14,12,25,6,25c-5,0-10-4-10-9s-20-21-45-36c-27-15-43-31-39-37c4-6,3-9-2-5c-5,3-45-22-89-55
		c-44-33-117-85-162-115c-46-31-84-60-84-65c-1-4-2-12-3-17c-2-17-14-22-22-10c-4,7-3,10,3,6c5-3,10,1,10,9c0,13-2,13-15,0
		c-13-12-13-18-3-30c8-9,17-13,22-10c5,3,8,1,7-4c-2-5,8-18,21-29c17-14,21-22,12-27c-7-5-10-2-9,5c2,7-3,13-11,14c-7,0-46,36-87,80
		l-73,81l142,127c127,112,264,247,212,206c-26-20-300-256-338-291l-30-26l-101,131c-267,347-456,658-472,778l-6,44l103,96
		c57,52,153,140,214,195c202,182,477,435,750,689c149,138,353,327,455,420c102,93,253,233,335,310c83,77,265,244,404,370
		c140,127,352,320,471,430c272,251,382,352,596,546c93,85,250,228,348,319c254,236,359,329,373,330c6,0,60-53,120-117
		c220-239,558-653,551-674c-2-4-75-69-163-145c-88-75-214-187-280-248c-67-61-190-174-275-251c-280-254-684-632-755-705l-70-73
		l50,33c95,64,277,209,475,379c355,307,737,651,963,871l98,95l20-25c52-66,80-113,73-120c-5-4-63-52-129-107s-185-158-264-229
		c-79-71-213-190-296-264c-441-391-655-594-655-623c0-14,50,1,92,28c73,48,266,214,551,474c20,18,30,22,38,14c6-6,8-17,4-23
		c-6-9-10-9-16,1s-9,8-9-8c0-12,4-25,10-28c5-3,15-15,21-27c8-15,8-19,0-14c-7,5-11-5-11-28c0-47-26-123-56-163c-17-22-20-33-11-37
		c6-3,3-4-8-3c-12,1-19-3-17-11c1-8-1-11-6-8c-12,7-84-53-77-65c4-5-1-6-9-3c-9,3-16,1-16-5s-4-11-10-11c-5,0-19-8-30-17
		c-7.9-6.9-12.1-11.8-12.9-15.9c13.5-1.9,25-11.2,32.5-23.7c19.7,14.2,39.5,28.3,59.4,42.4c46.8,33.2,93.1,67.2,137.8,103
		c18.5,20.9,36.8,42,54.4,63.6c-9.2,13.7-11.3,31.7-0.3,50c31.9,52.9,77.8,91.9,127.5,127.5c16.5,11.9,33.5,10.6,47.1,2.2
		c56.8,49.9,111.7,102.5,176,142.5c13.1,8.2,28.7,8.4,42.4,3.3c1.2,1.6,2.6,3.3,4.2,5c12,13,18,15,21,6c1.5-5.1,0.2-10.7-2.9-14.1
		c18,9.4,35.2,21.9,51.2,31.2c6.5,3.7,13,7.4,19.5,11c30.5,27.6,62,54.1,94.5,79.4c-0.3,1,0.2,1.4,1.5,1.2
		c7.2,5.6,14.3,11.2,21.6,16.6c17.8,27.9,33.2,57.4,49.3,89c4.2,8.2,8.8,16,13.7,23.5c-0.7,0.4-1.2,0.8-1.5,1.3
		c-0.9,1.8,1.3,3.3,5.5,4.6c26.2,36.9,62.6,62.3,110.8,63.7c4.6,2.3,10.5,3.7,15.8,3.7c11.4,0,14.1-1.2,9-5.3
		c8.8-1.5,17.3-3.8,25.4-7.1c3,4.6,3.4,9.7,1.6,16.4c-4,12-2,16,5,12c6-4,11-14,11-21c0-3.4-2.2-8-5.8-12.8
		c17.3-9.2,32.1-22.5,42.8-39.1c13.2,9.9,16.8,8.6,4.1-6.9c5.2-9.5,9.3-20,11.6-31.2c1.3-6.1,2-12.2,2.4-18.1
		c1.4-0.2,2.7-0.7,3.8-1.8c1.6-2.4,0-7.8-3.6-12.9c-0.6-11.7-2.8-23.2-6.3-34.3c9.9,7.4,18,12.2,21,12.2c5,0,6,7,3,17
		c-5,11-3,14,6,8c10-6,12,0,7,26c-4,25-4,29,3,14c6-13,10-15,10-6c1,11,5,9,15-5C7966,6268.4,7965,6265.4,7952,6257.4z M4784,3512.4
		c3-7,0-8-9-5c-9,3-16,2-16-4c0-5-8-13-17-17c-10-3-3,10,16,29c35,36,54,49,31,21C4783,3528.4,4780,3517.4,4784,3512.4z
		 M4775,3447.4c-18,7-21,14-7,14c6,0,13-4,16-10C4787,3445.4,4783,3444.4,4775,3447.4z M4898,3644.4c13,16,21,21,21,13
		c0-2-8-10-17-17C4886,3627.4,4885,3628.4,4898,3644.4z M4947,3666.4c4-5,1-5-6-1c-10,6-10,11-1,22c6,8,14,14,16,14c3,0,0-6-6-13
		C4944,3680.4,4943,3670.4,4947,3666.4z M5084,3816.4l19,23c18,21,26,27,26,19c0-2-10-12-22-23L5084,3816.4z M5449,4067.4
		c0-2-8-10-17-17c-16-13-17-12-4,4C5441,4070.4,5449,4075.4,5449,4067.4z M5439,4110.4c0,6,5,11,10,11c6,0,10-2,10-4c0-3-4-8-10-11
		C5444,4103.4,5439,4105.4,5439,4110.4z M5413,4067.4c-8-3-12-2-9,4c6,10,25,14,25,6C5429,4075.4,5422,4070.4,5413,4067.4z
		 M5402,4094.4c-9,0-10,4-2,14c6,7,12,13,14,13c1,0,2-6,2-13C5416,4100.4,5410,4094.4,5402,4094.4z M5527,4148.4c6,2,12,11,12,18
		c0,11,9,19,28,24c1,1-5-10-14-24s-21-25-28-24C5518,4142.4,5519,4144.4,5527,4148.4z M6839,5632.4c0-5-7-12-16-15c-14-5-15-4-4,9
		C6833,5643.4,6839,5645.4,6839,5632.4z M8045,6529.4c-13,15-41,55-64,89c-23,34-46,65-52,68c-5,3-10,11-10,17c0,7,5,7,14-1
		c10-9,15-8,19,2c3,8,12,14,20,14s13-6,10-14c-4-11,20-19,49-14c4,0,6-12,6-28c-1-25-4-28-30-25l-29,4l28-40c25-35,29-38,41-23
		c6,9,12,13,13,7c1-5,2-26,4-46l3-38L8045,6529.4z M8157,6536.4c-2-27-12-62-22-78c-17-26-19-26-32-10c-18,25-17,34,4,26
		c9-3,14-3,10,1c-4,5-3,18,1,30c5,11,11,34,15,50c6,26,5,28-8,17c-18-15-22-1-4,17c9,9,8,18-2,39c-7,16-12,33-11,38c1,6-3,4-10-2
		c-10-10-10-16-1-25c7-7,12-19,12-27c-1-10-6-7-15,9l-14,25l-1-27c0-16,5-28,11-28c5,0,7-5,3-11c-4-8-10-5-17,7c-15,28-15,28-30,15
		c-11-9-17-8-27,4c-7,9-10,18-7,22c4,3,9-1,12-9c5-13,10-13,29,6c28,25,29,84,4,110c-21,20-32,21-24,1c3-9,0-15-8-15
		c-14,0-18,32-4,41c5,3,5,14,2,24c-7,18-8,18-16-1c-6-15-7-13-3,7c3,19-2,32-20,49c-14,13-25,28-25,34c0,6-5,18-10,26
		c-9,13-11,13-19,1c-7-10-9-7-8,12c2,30,10,26,40-18c12-18,45-66,73-106c28-41,49-80,46-88c-3-8,0-11,6-7c6,4,16-3,22-14s8-20,6-20
		c-3,0,6-17,20-37C8156,6593.4,8160,6577.4,8157,6536.4z M8099,7470.4c0,6,5,11,10,11c6,0,10-2,10-4c0-3-4-8-10-11
		C8104,7463.4,8099,7465.4,8099,7470.4z M8283,7651.4c-6-6-10-3-10,10c0,13,4,16,10,10C8290,7664.4,8290,7658.4,8283,7651.4z
		 M8324,7701.4c-3-5-12-10-18-10c-7,0-6,4,3,10C8328,7713.4,8332,7713.4,8324,7701.4z M8354,7731.4c-13-11-14-10-9,4
		c5,14,24,23,24,12C8369,7745.4,8362,7738.4,8354,7731.4z M8409,7776.4c-5-3-10-1-10,4c0,6,5,11,10,11c6,0,10-2,10-4
		C8419,7784.4,8415,7779.4,8409,7776.4z M8452,7807.4l-28-17l24,20c23,21,31,25,31,17C8479,7825.4,8467,7816.4,8452,7807.4z
		 M8888,8124.4c13,16,31,23,31,12c0-2-10-10-22-16C8876,8109.4,8875,8109.4,8888,8124.4z"/>
	<path d="M5503.7,4488.5c4.3,3.7,8.7,7.5,13,11.2c0.4,6.4,2.1,12.8,5.1,18.9c-4.4-6.4-8.7-13.5-12.9-21.2
		C5507.2,4494,5505.4,4491.1,5503.7,4488.5z"/>
	<path d="M6469,5240.4c0.4-0.5,0.8-0.9,1.3-1.4c9.3,10.8,18.4,21.7,27.4,32.7c-0.2,0.1-0.4,0.3-0.6,0.4
		C6487.7,5261.6,6478.3,5251,6469,5240.4z"/>
	<path d="M6398.9,5321.9c17.5,15.7,34.2,32.5,50.4,49.3c-22-16.9-42-32.1-56.8-43C6394.8,5326.3,6397,5324.2,6398.9,5321.9z"/>
	<path d="M6657.5,5318c18.9,18.6,38.3,36.8,58.3,54.3c7,8,14.1,16,21.4,23.8c-18.8-14.6-37.7-29.1-56.9-43
		C6672.9,5341.2,6665.3,5329.5,6657.5,5318z"/>
	<path d="M7039.1,5621.8C7039.1,5621.8,7039.1,5621.8,7039.1,5621.8c6.4,5.3,12.8,10.6,19.6,15.7c0.4,0.3,0.8,0.4,1.2,0.7
		c34.2,31,69.5,61,106.1,89.3c9.7,7.5,19.8,11.4,29.5,12.5c17.7,13.3,36.1,25.8,55,38.4c0.2,0.1,0.4,0.2,0.6,0.3
		c34.2,37.4,70.8,72.3,108.8,105.4c-14.4,9.2-24.5,27.2-25.6,45.8c-55.5-43.1-105.7-93-160.1-137.3c5.5-15.2,3.2-33.3-11.9-49.7
		c-44.1-47.9-92.1-91.6-142.3-132.7c0,0-0.1-0.1-0.1-0.1c0.4-0.4,0.9-0.9,1.3-1.3C7027.1,5613.2,7033.1,5617.5,7039.1,5621.8z"/>
	<path d="M6152.2,5116c-13.7-15.7-21.9-21.9-19.2-14.6c4,8,1,6-8-4c-5.9-7.4-10.2-16-11.2-21.5c12.7,10.2,25.4,20.3,38.5,30
		C6151.9,5109.2,6151.9,5112.6,6152.2,5116z"/>
	<path d="M5817,4796.4c-0.5,0.5-5.5,0.8-33-23c-45-39-39-17,6,26c32,30,46,37,55,28c1.7-1.5,3-2.9,4-4.3c0.4,7,2.3,14.3,6.1,21.6
		c0.4,0.8,0.8,1.5,1.2,2.2c-3,0.5-4.7,1.1-4.3,1.5c0.3,0.3,4.7,4.8,12.1,12.5c11.5,19.5,24.7,37,41.9,52.6
		c6.3,5.7,13.3,9.3,20.5,11.4c14.7,15,30.8,31.4,47.6,48.5c119,122,226,240,222,244c-9,9-460-368-682-571c-49-45-166-151-260-236
		c-339-307-746-709-727-716c8-3,19,0,25,6c7,7,15,7,26-2c12-10,14-9,8,5c-6,18-5,19,114,113c35,27,86,70,112,95
		c21.3,19.7,40.3,33.1,57.2,40.4c9.1,8,18.4,15.7,27.9,23.2c-5,0.4-8.1,0.9-8.1,1.4c0,2.6,59.8,56.3,117.9,107
		c39.6,64,108.1,110.1,169.9,150.9c33.8,34.5,58.1,50.8,67.6,46.2c1.9,1.3,3.8,2.7,5.7,4c-0.4,0.6-0.7,1.3-1.1,1.9
		c-11,14-10,16,6,14c3,0,15,10,26,23c11,13,27,21,36,20c10-2,14-1,10,4c-9,8,9,34,23,34c5,0,9-6,9-14c0-0.2-0.1-0.4-0.1-0.6
		c16.8,13.4,33.4,27.1,50,40.9c-18.9-9-34.9-14.9-38-12.2c-3,4,6,19,21,33c14,15,30,24,33,20c4-4-1-14-12-23c-13-11-9-10,14,2
		c17,10,32,22,32,26c0,4,5,8,10,8c1,0,1.8-0.3,2.7-0.5c7,6.1,14.1,12.1,21.1,18.2c-0.8,0.3-1.4,0.9-1.8,2.3c-3,7-13,3-28-11
		c-13-12-27-19-31-15c-4,3,3,13,15,21c11,9,28,22,36,30c11,11,16,12,19,2c4-7,6-6,6,4c0.8,7.5,26.5,38.4,60.9,73.3
		c16.4,18.8,34.3,36.1,53.2,52.3c35,34.6,67.8,67.5,80.9,81.4c33,35,35,35,52,24c1.6-0.9,2.8-1.8,3.7-2.8c7.5,5.6,15,11.2,22.3,16.9
		c16.2,16,24.7,23.7,25.3,23.1c1.8-1.7-61.5-72.2-189.8-211.6C5783.4,4751.5,5819,4794.5,5817,4796.4z"/>
	<path d="M7817,7604.4c6-2,12-14,12-24c0-11,5-17,10-14c13,8-6,45-23,44C7807,7610.4,7807,7608.4,7817,7604.4z"/>
	<path d="M7809,7541.4c6-11,13-20,16-20c2,0,0,9-6,20s-13,20-16,20C7801,7561.4,7803,7552.4,7809,7541.4z"/>
	<path d="M7403,7423.4c35-37,46-40,46-11c0,16-4,19-16,15c-10-4-26,1-38,11S7387,7441.4,7403,7423.4z"/>
	<path d="M7485,7343.4c-3-5,4-18,15-28c21-19,21-19,18,5C7514,7345.4,7495,7359.4,7485,7343.4z"/>
	<path d="M7566,7264.4c-13-12-7-33,8-33c8,0,15,9,15,20C7589,7271.4,7578,7277.4,7566,7264.4z"/>
	<path d="M7634,7150.4c-4-11-4-23-2-26c9-8,27,7,27,22C7659,7169.4,7641,7173.4,7634,7150.4z"/>
	<path d="M7709,7041.4c0-5,5-10,11-10c5,0,7,5,4,10c-3,6-8,10-11,10C7711,7051.4,7709,7047.4,7709,7041.4z"/>
	<path d="M7869,6777.4c0-2,8-10,18-17c15-13,16-12,3,4S7869,6785.4,7869,6777.4z"/>
	<path d="M6645,7312.4c-21-17-101-90-179-163c-272-255-399-372-712-654c-316-284-1221-1120-1520-1405c-99-94-200-187-270-249
		c-108-95-468-432-567-530c-95-93-98-97-98-141c0-51,18-82,61-105c53-27,80-12,233,129c78,73,219,202,312,287c93,85,221,204,284,265
		c395.6,383,602.4,565,660,616c393.4,348.7,393.2,301.8,579.7,497.9c83.9,88.2,207.9,228,409.4,412.1c41.3,37.7,43.8,39.7,155.9,140
		c76,68,234,212,350,319c116,107,270,248,342,313c144,130,162,156,143,211C6801,7339.4,6714,7366.4,6645,7312.4z"/>
	<path d="M7278,6984.4l-34-38l38,34c34,33,42,41,34,41C7314,7021.4,7297,7004.4,7278,6984.4z"/>
	<path d="M7165,6885.4c-38-35-67-66-65-68s36,28,74,65C7263,6969.4,7256,6971.4,7165,6885.4z"/>
	<path d="M7013,6748.4c-38-34-132-118-209-187c-160-141-415-390-400-390c18,0,273,231,485,438C7089,6805.4,7150,6874.4,7013,6748.4z
		"/>
	<path d="M5403,5069.4l-19-23l23,19c21,18,27,26,19,26C5424,5091.4,5414,5081.4,5403,5069.4z"/>
	<path d="M5669,5039.4c-123-93-342-273-455-373c-150-134-497-448-590-535c-38-36-113-104-165-150c-210-186-490-456-490-473
		c0-37,238,133,451,322c456,406,886,805,1067,991c97,99,246,260,241,260C5726,5081.4,5699,5062.4,5669,5039.4z"/>
	<path d="M5313,4989.4l-19-23l23,19c12,11,22,21,22,23C5339,5016.4,5331,5010.4,5313,4989.4z"/>
	<path d="M5244,4929.4l-40-43l43,40c23,21,42,40,42,42C5289,4976.4,5280,4968.4,5244,4929.4z"/>
	<path d="M5039,4754.4c-363-313-851-754-844-762c5-6,125,91,259,209c366,322,743,670,727,670C5177,4870.4,5113,4818.4,5039,4754.4z"
		/>
	<path d="M2928,3754.4c-13-16-12-17,4-4s21,21,13,21C2943,3771.4,2935,3763.4,2928,3754.4z"/>
	<path d="M3684,3639.4c-22-18-53-45-70-61c-16-15-101-89-187-164c-87-75-155-139-153-141c5-6,70,45,175,137c92,81,284,261,278,261
		C3725,3671.4,3706,3656.4,3684,3639.4z"/>
	<path d="M7956,6696.4c-9-21,1-38,15-29c8,5,9,1,4-12c-5-14-4-16,4-8c9,9,8,19-3,39C7964,6709.4,7961,6711.4,7956,6696.4z"/>
	<path d="M7766,6497.4c-7-17,17-52,43-66c16-8,18-8,14,5c-4,8-10,15-15,15s-9,9-9,21c0,11-4,17-10,14s-7,1-4,9c3,9,2,16-4,16
		C7776,6511.4,7769,6505.4,7766,6497.4z"/>
	<path d="M6995,6053.4c-3-5,1-9,9-9s12,4,9,9c-3,4-7,8-9,8S6998,6057.4,6995,6053.4z"/>
	<path d="M4879,3470.4c0-5,5-7,10-4c6,3,10,8,10,11c0,2-4,4-10,4C4884,3481.4,4879,3476.4,4879,3470.4z"/>
	<path d="M4809,3401.4c-8-5-12-11-9-14c2-3,11-1,19,4s12,11,9,14C4826,3408.4,4817,3406.4,4809,3401.4z"/>
	<path d="M6033,4179.4c-4-7-4-10,1-6c4,4,15,2,24-5c14-11,14-10,2,6C6044,4194.4,6042,4195.4,6033,4179.4z"/>
	<path d="M2564,3711.4c-10-16,16-43,28-31c11,11,2,41-12,41C2575,3721.4,2567,3716.4,2564,3711.4z"/>
	<path d="M2627,3603.4c-19-21-13-42,13-42c13,0,19,7,19,24C2659,3617.4,2645,3625.4,2627,3603.4z"/>
	<path d="M2691,3504.4c-15-26,4-59,24-42c18,15,18,33,0,48C2703,3520.4,2698,3519.4,2691,3504.4z"/>
	<path d="M2752,3395.4c-8-21,13-42,28-27c13,13,5,43-11,43C2763,3411.4,2756,3404.4,2752,3395.4z"/>
	<path d="M2832,3304.4c-16-6-17-39-2-49c6-3,17,0,25,8c12,11,12,17,2,30C2850,3302.4,2838,3307.4,2832,3304.4z"/>
	<path d="M2909,3172.4c0-10,7-22,15-25c20-7,32,23,14,35C2917,3195.4,2909,3193.4,2909,3172.4z"/>
	<path d="M3579,2441.4c0-5,5-10,10-10c6,0,10,5,10,10c0,6-4,10-10,10C3584,2451.4,3579,2447.4,3579,2441.4z"/>
	<path d="M4539,3301.4c-13-8-12-10,3-10c9,0,17,5,17,10C4559,3313.4,4558,3313.4,4539,3301.4z"/>
	<path d="M4279,3075.4c0-14,3-14,15-4c8,7,15,14,15,16s-7,4-15,4S4279,3084.4,4279,3075.4z"/>
	<path d="M2550,2743.4l-24-37l32,29c30,29,39,46,24,46C2577,2781.4,2563,2764.4,2550,2743.4z"/>
	<path d="M2499,2651.4c-6-11-8-20-6-20c3,0,10,9,16,20s8,20,6,20C2512,2671.4,2505,2662.4,2499,2651.4z"/>
	<path d="M1934,1811.4c-10-11-16-22-13-25s13,4,23,15s16,22,13,25S1944,1822.4,1934,1811.4z"/>
	<path d="M4159,2851.4c0-5,5-10,10-10c6,0,10,5,10,10c0,6-4,10-10,10C4164,2861.4,4159,2857.4,4159,2851.4z"/>
	<path d="M3797,2844.4c-21-14-38-30-38-34c0-14,6-11,46,26C3851,2877.4,3848,2880.4,3797,2844.4z"/>
	<path d="M3795,2673.4c-3-6-1-14,5-17c15-10,25,3,12,16C3805,2679.4,3799,2679.4,3795,2673.4z"/>
	<path d="M7404,8975.4c-12-19-16-39-12-66c5-36,3-41-27-59c-28-16-32-23-28-50c4-29,7-31,35-25c52,10,97,54,129,124
		c16,35,28,65,26,66c-6,5-94,36-100,36C7424,9001.4,7414,8989.4,7404,8975.4z"/>
	<path d="M7584,8867.4c-79-34-113-128-77-209c17-37,32-52,91-86c74-44,88-66,46-77c-36-9-81,13-120,59l-35,41l-43-24
		c-23-12-46-26-50-30c-12-11,16-60,55-96c124-118,300-104,353,28c31,79,4,134-98,194c-34,20-65,41-69,47c-9,15,9,47,28,47
		c25,0,91-38,113-66l21-26l30,25c16,14,39,28,50,32c29,9,25,20-22,68C7778,8873.4,7665,8903.4,7584,8867.4z"/>
	<path d="M5307,8437.4c-127-38-201-96-296-237l-38-56l-37,57c-113,174-244,243-462,243c-132,0-175-22-175-91c0-79,47-108,147-92
		c129,21,236-22,317-129c49-65,106-157,106-171c0-6-18-50-41-98c-135-287-215-684-180-887c33-191,167-325,322-325
		c99,0,204,56,258,136c139,210,108,563-89,1037l-62,147l56,89c117,186,211,234,401,207c57-8,63-6,92,18c39,33,47,66,29,111
		c-21,50-63,65-178,64C5411,8460.4,5362,8453.4,5307,8437.4z M5030,7610.4c110-310,134-551,69-679c-61-119-187-115-248,9
		c-53,110-40,318,39,583c37,127,79,222,91,210C4986,7728.4,5008,7673.4,5030,7610.4z"/>
	<path d="M4284,8031.4c-137-29-254-70-266-92c-14-26-3-53,27-66c38-18,365-16,409,2c100,42,55,179-59,175
		C4383,8050.4,4334,8041.4,4284,8031.4z"/>
	<path d="M5480,8015.4c-28-36-27-86,3-121l24-28l199-3c191-3,199-3,226,18c40,32,33,60-23,87c-65,32-256,73-339,73
		C5507,8041.4,5499,8039.4,5480,8015.4z"/>
	<path d="M1054,5916.4c-40-39-32-96,16-120c35-19,437-22,488-4c55,19,69,82,26,124l-24,25h-241h-241L1054,5916.4z"/>
	<path d="M8350,5924.4c-34-29-37-74-8-109l25-29l219-3c120-2,237,0,261,3c54,8,82,35,82,78c-1,73-15,77-308,77
		C8398,5941.4,8369,5939.4,8350,5924.4z"/>
	<path d="M1454,5391.4c-184-7-220-15-306-71c-87-56-157-165-179-279c-13-69-13-261,1-336c17-98,83-218,164-300c71-72,114-99,215-137
		c51-20,80-21,428-25l372-3l30,30c38,38,40,82,5,116c-29,30,0,28-365,25c-175-1-323,3-365,9c-92,15-201,68-253,125
		c-59,64-72,118-72,296c0,186,13,234,80,300c70,71,110,80,346,80h192l26,31c14,17,26,41,26,53c0,53-70,99-145,94
		C1638,5398.4,1548,5394.4,1454,5391.4z"/>
	<path d="M7853,5367.4c-37-31-38-84-4-121l23-25h347c394,0,421-4,487-68c72-70,93-145,93-331c0-185-29-261-125-325
		c-116-77-193-86-722-85c-571,2-524,5-548-41c-22-43-19-68,14-101l29-29h505c469,0,509,1,581,20c221,56,377,224,422,455
		c28,142,6,353-47,457c-27,54-101,131-153,162c-90,53-120,56-512,56h-363L7853,5367.4z"/>
	<path d="M1559,5049.4c-55-29-80-74-80-145c0-47,4-58,36-93c67-74,160-76,230-6c76,76,59,191-37,245
		C1661,5077.4,1614,5077.4,1559,5049.4z M1659,4932.4c12-23,5-47-17-55c-21-9-43,12-43,39C1599,4952.4,1642,4963.4,1659,4932.4z"/>
	<path d="M2019,5053.4c-19-10-45-37-57-58c-75-130,45-282,182-230c91,35,132,118,100,202C2210,5055.4,2100,5098.4,2019,5053.4z
		 M2117,4939.4c18-18,14-46-9-58c-26-14-49,3-49,35S2094,4962.4,2117,4939.4z"/>
	<path d="M7807,5051.4c-49-26-78-76-78-134c0-80,41-137,112-156c56-16,104-3,148,39c85,80,68,201-34,251
		C7903,5076.4,7855,5076.4,7807,5051.4z M7903,4945.4c23-9,20-51-5-64c-37-20-67,28-37,58C7875,4953.4,7881,4953.4,7903,4945.4z"/>
	<path d="M8274,5057.4c-41-18-83-69-91-111c-20-110,73-211,178-191c46,8,114,68,128,112C8530,4990.4,8394,5109.4,8274,5057.4z
		 M8353,4945.4c31-12,13-74-21-74c-22,0-38,46-23,65C8323,4953.4,8330,4954.4,8353,4945.4z"/>
	<path d="M2677,4954.4c-142-4-154-10-142-72l7-31h161c175,0,186,3,186,51c0,32-33,60-65,57C2813,4958.4,2747,4955.4,2677,4954.4z"/>
	<path d="M7201,4939.4c-7-7-12-24-12-38c0-46,13-50,171-50c81,0,150,4,153,8c9,15,15,63,9,78C7515,4956.4,7220,4958.4,7201,4939.4z"
		/>
	<path d="M6894,4589.4c-53-31-60-85-16-129c28-28,34-29,116-29c98,0,146,16,164,56c17,38,14,53-18,85c-29,28-32,29-128,29
		C6957,4601.4,6905,4595.4,6894,4589.4z"/>
	<path d="M1281,3952.4c-216-6-235-7-248-25c-32-44-6-108,48-121c13-3,146-5,296-3l274,3l24,28c30,35,30,59,0,94
		C1647,3960.4,1640,3961.4,1281,3952.4z"/>
	<path d="M8177,3953.4c-54-6-75-74-38-122l19-25h369c350,0,371,1,391,19c28,26,29,86,1,111c-20,18-45,19-368,19
		C8360,3956.4,8192,3955.4,8177,3953.4z"/>
	<path d="M7576,3923.4c-25-28-22-87,5-106c71-50,159,43,98,104C7653,3947.4,7598,3947.4,7576,3923.4z"/>
	<path d="M1072,3279.4c-54-26-50-114,6-138c19-7,109-10,285-8l258,3l25,29c29,35,26,80-8,109c-19,15-48,17-283,16
		C1194,3290.4,1086,3286.4,1072,3279.4z"/>
	<path d="M1879,3280.4c-31-13-40-26-40-66c0-37,32-73,66-73c30,0,71,35,77,66c3,17-2,33-17,49C1939,3285.4,1911,3293.4,1879,3280.4z
		"/>
	<path d="M8344,3266.4c-16-15-25-36-25-55s9-40,25-55l24-25h248c269,0,287,4,311,54c16,32,2,80-29,96c-10,6-129,10-274,10h-256
		L8344,3266.4z"/>
	<path d="M5160,2969.4c-65-15-119-53-154-109c-25-41-35-49-51-44c-47,14-184,17-239,6c-150-32-291-140-358-275
		c-155-314,27-625,366-626c189,0,349,86,734,394c107,86,217,167,245,181c133,66,240-9,240-170c0-80-20-129-76-182
		c-46-45-100-64-193-71l-80-5l62,67c73,80,93,118,93,181c0,38-5,52-29,76c-64,64-131,17-131-91c0-33-7-45-58-91
		c-32-30-112-97-177-150c-264-211-361-256-462-214c-47,20-76,19-96-3c-25-28-21-57,14-97c33-38,104-65,168-65c49,0,131,23,179,50
		l40,22l68-33c125-62,276-49,344,28c23,26,30,43,28,66c-4,47-41,57-106,29c-55-24-121-28-171-11c-38,14-39,20-2,42c16,9,47,32,70,51
		l40,34l43-15c24-8,88-17,143-20c84-4,109-1,159,16c262,93,365,359,238,614c-95,190-304,300-510,269c-100-16-95-16-110,16
		C5390,2933.4,5265,2993.4,5160,2969.4z M5289,2791.4c11-15,20-35,20-43c0-20-69-77-92-77c-19,0-98,71-98,88c0,19,50,71,73,74
		C5227,2839.4,5267,2821.4,5289,2791.4z M4914,2676.4c59-16,153-65,180-95c12-13,8-20-24-47l-39-32l-58,46c-69,53-163,100-225,112
		c-38,7-41,9-19,14C4806,2693.4,4845,2694.4,4914,2676.4z M5714,2666.4l30-13l-26-1c-49-2-145-61-304-188c-215-172-327-254-405-296
		c-195-106-350-121-453-43c-87,66-120,185-77,283c26,62,52,88,109,108c55,19,94,19,157,0c50-15,164-88,164-105c0-5-23-21-51-35
		l-50-26l-20,25c-37,48-109,31-129-29c-14-43-1-91,35-125c21-19,32-22,79-18c97,8,177,58,506,318c109,87,184,133,240,151
		C5561,2684.4,5682,2681.4,5714,2666.4z"/>
	<path d="M6470,2160.4c-123-38-141-50-141-94c0-28,5-38,25-47c21-9,43-6,127,17c137,38,173,75,132,133
		C6594,2196.4,6586,2196.4,6470,2160.4z"/>
	<path d="M3816,1863.4c-27-29-22-84,11-114c36-35,73-48,140-50c50-1,57,1,83,30c39,43,38,84,0,123c-28,28-33,29-124,29
		C3848,1881.4,3829,1878.4,3816,1863.4z"/>
	<path d="M6977,1820.4l-78-41v-114c0-63-2-114-4-114c-3,0-52,25-109,55s-108,55-114,55s-45-21-88-46l-77-47l164-83
		c89-46,178-92,197-102c28-14,44-37,89-129l55-112l71,36c39,19,72,36,74,38c1,1-22,52-52,113l-54,111l6,210c3,116,3,211,1,211
		S7019,1842.4,6977,1820.4z"/>
	<path d="M2748,1517.4c-71-145-129-269-129-275c0-12,114-71,136-71c6,0,27,36,48,80c20,44,41,80,47,80c5,0,39-12,76-27
		c97-40,176-39,235,3c24,16,55,52,71,79c23,43,27,59,24,111c-3,75-31,121-97,164c-46,29-249,120-270,120
		C2883,1781.4,2820,1662.4,2748,1517.4z M3056,1535.4c41-31,42-67,2-97l-27-19l-60,27c-66,29-66,30-29,93c18,30,24,33,50,28
		C3009,1564.4,3038,1549.4,3056,1535.4z"/>
	<path d="M3618,1409.4c-21-29-77-107-124-173c-48-66-112-155-143-199c-31-43-57-82-57-86c0-7,126-50,147-50c7,0,63,71,78,97
		c0,1,43-10,95-26l95-27l6-57c4-32,8-59,10-61s39-10,82-18l77-15v26c0,14-12,155-27,314l-28,288l-66,19
		C3667,1470.4,3661,1468.4,3618,1409.4z M3698,1174.4c4-46,6-83,4-83c-20,1-89,28-90,36s75,134,78,130
		C3691,1257.4,3695,1219.4,3698,1174.4z"/>
	<path d="M5979,1411.4c-69-21-133-39-142-39c-9-1-19-5-22-10c-5-7,149-559,159-569c2-3,38,3,80,13c86,20,85,18,55,115
		c-11,36-20,68-20,72c0,7,56,28,75,28c6,0,46-31,87-69l76-69l87,31l88,31l-30,25c-16,14-60,52-96,84l-67,59l19,26
		c62,87,41,213-45,279c-32,24-48,28-108,30C6116,1450.4,6083,1444.4,5979,1411.4z M6173,1280.4c43-34,31-66-39-102
		c-16-8-44-18-60-21c-30-7-31-5-48,46c-9,28-15,53-13,55c6,6,110,42,122,43C6141,1301.4,6158,1292.4,6173,1280.4z"/>
	<path d="M4407,1295.4c-122-37-175-176-103-270c36-47,66-65,159-95c44-14,84-33,90-41c16-26-10-48-56-48c-49,0-95,19-140,58l-35,31
		l-54-40c-30-23-55-47-57-54c-5-20,88-93,147-115c194-74,370,7,371,170c0,87-54,138-197,185c-89,29-98,35-88,65c10,33,78,27,149-13
		l59-33l49,49c48,48,49,50,31,69c-47,53-159,99-237,97C4472,1310.4,4433,1303.4,4407,1295.4z"/>
	<path d="M5389,1291.4c-41-4-118-8-171-9c-53,0-117-4-143-7l-47-7l3-71l3-71l86,2l86,3l6-48c3-26,12-125,18-221l13-173l78,4
		c43,3,80,7,83,10c4,4-7,153-29,394l-3,42l90,7l89,7l-6,36c-3,21-6,54-6,75C5539,1306.4,5544,1305.4,5389,1291.4z"/>
</g>
<path d="M789,760.4c-17,14.1-34,28.2-51,42.3c-1.7,1.4-3.3,2.8-5,4.1C751.6,791.4,770.3,775.9,789,760.4z"/>
<path d="M744,855"/>
<path d="M752.9,796.1"/>
<path d="M756.1,787.7"/>
<path d="M849.9,830.7c2.7,9.2,3.1,4.3,3.1,4.3L849.9,830.7z"/>
<path d="M826.6,843.6"/>
<path d="M824.3,851.6"/>
<path d="M896.5,856.3"/>
<path d="M826.7,853.5"/>
<path d="M802.3,862.3"/>
<path d="M840.7,856.3"/>
<path d="M818.1,859.6c-4.1-7.8-2.6-12.9-2.1-14.2c3.2-9.1,17.9-15,35.5-10.2"/>
<path d="M565.6,397.2"/>
</svg>
