<svg width="1200" height="630" xmlns="http://www.w3.org/2000/svg">
  <defs>
    <linearGradient id="grad" x1="0%" y1="0%" x2="100%" y2="100%">
      <stop offset="0%" style="stop-color:#1c398e;stop-opacity:1" />
      <stop offset="100%" style="stop-color:#4a6fc9;stop-opacity:1" />
    </linearGradient>
  </defs>

  <!-- Background -->
  <rect width="1200" height="630" fill="url(#grad)"/>

  <!-- Logo centrato -->
  <g transform="translate(435, 120) scale(0.8)">
    <path fill="#ffffff" d="M105.312 68.27c-6.828 1.12-12.723 4.676-19.598 11.738-6.968 7.203-10.945 13.473-13.75 21.797-4.726 14.078-3.461 30.403 3.414 43.266 3.368 6.363 7.391 10.945 22.403 25.867 15.625 15.484 17.074 16.605 23.062 18.195 3.555.891 9.399.891 13.047-.047 4.258-1.074 7.766-3.18 11.977-7.11l3.836-3.507 5.8 5.8 5.797 5.802-8.136 8.137c-8.047 8.046-8.141 8.093-9.215 7.343-.61-.422-1.918-.75-2.992-.75-1.825 0-2.153.282-34.989 33.07-18.195 18.243-33.726 34.051-34.472 35.176-2.668 3.976-3.461 6.781-3.461 12.206.047 3.977.234 5.426 1.074 7.625 1.543 3.977 4.91 8.184 8.375 10.477 4.113 2.762 7.25 3.648 12.723 3.602 4.91 0 7.949-.934 11.738-3.461 1.121-.75 16.933-16.278 35.176-34.473 32.789-32.836 33.066-33.164 33.066-34.988 0-1.075-.324-2.383-.746-2.993-.75-1.074-.703-1.167 7.344-9.214l8.136-8.141 7.063 7.066 7.113 7.11-1.594 2.058c-1.121 1.496-1.589 2.57-1.589 3.785 0 1.64 1.36 3.09 33.304 35.082 18.336 18.336 34.192 33.957 35.223 34.66 4.348 3.039 10.898 4.398 16.23 3.367 11.551-2.246 19.598-13.516 17.727-24.93-.891-5.519-2.762-8.746-8.606-14.734-2.762-2.852-5.708-5.473-6.458-5.754-2.898-1.215-6.035.984-6.035 4.258 0 1.824.282 2.199 4.867 6.922 2.665 2.714 5.286 5.8 5.802 6.875 2.383 4.726 1.637 10.058-2.012 14.125-3.508 3.93-8.516 5.243-13.614 3.555-2.058-.699-4.629-3.086-26.051-24.461l-23.714-23.668 8.98-8.98 8.981-9.027 4.77 4.675c4.257 4.211 4.91 4.68 6.456 4.68 3.508 0 5.656-3.043 4.348-6.176-.422-.886-6.688-7.531-14.922-15.715-13.422-13.332-14.313-14.125-15.902-14.125-1.215 0-2.293.465-3.79 1.59l-2.058 1.59-14.172-14.172 4.773-4.773 4.817-4.77 9.121-1.918c28.996-6.082 51.075-13.52 62.391-20.953 7.86-5.195 14.782-14.64 18.243-24.933 4.258-12.629 3.09-27.641-3.992-39.711-4.817-9.543-13.567-18.243-23.153-23.012-12.117-6.035-26.847-7.109-39.476-2.902-8.75 2.949-18.336 9.449-23.11 15.718-8.277 10.946-16.043 33.118-22.777 64.922l-1.918 9.121-4.77 4.817-4.773 4.773-5.848-5.848-5.843-5.847 2.664-2.664c3.648-3.742 6.222-7.625 7.484-11.274.891-2.621 1.074-4.07 1.027-8.511-.047-5.989-.793-8.938-3.554-13.286-1.731-2.808-43.219-44.671-47.379-47.851-7.067-5.379-16.141-7.625-24.887-6.172zm10.852 9.54c5.941 1.593 6.55 2.058 30.964 26.57 21.563 21.61 23.012 23.2 23.95 25.727 1.308 3.602 1.308 7.855 0 11.41-.797 2.059-1.871 3.555-4.446 6.223l-3.367 3.46-6.172-5.988c-7.25-7.063-9.402-8.325-14.453-8.325-5.332 0-9.73 2.477-12.211 6.781-2.617 4.586-2.804 9.122-.605 13.844.418.938 3.508 4.492 6.875 7.906l6.082 6.176-3.043 3.086c-1.637 1.684-4.024 3.649-5.332 4.305-2.106 1.121-2.852 1.262-7.016 1.262-7.11 0-7.015.046-23.058-15.856-14.922-14.781-18.336-18.851-21.469-25.351-3.418-7.25-4.07-10.34-4.07-19.832 0-7.532.14-8.516 1.261-12.305 1.45-4.676 3.79-9.539 6.551-13.656 2.57-3.743 10.29-11.461 13.188-13.145 4.726-2.757 11.132-3.648 16.371-2.293zm149.539.684c1.964.516 4.629 1.403 6.941 1.965l2.383 1.028-5.004 2.433c-15.156 7.297-29.563 20.395-43.969 39.992-4.676 6.36-14.781 21.141-19.551 28.672-2.293 3.508-4.211 6.317-4.305 6.223-.094-.094.562-3.602 1.5-7.813 4.816-22.125 10.383-40.039 15.761-50.937 3.086-6.266 3.649-7.063 7.344-10.758 2.477-2.434 5.473-4.816 7.766-6.176 3.879-2.289 10.383-4.722 14.777-5.472 3.883-.7 13.192-.278 17.356.843zm19.925 13.427c.516 8.652-13.144 28.625-28.16 41.207-9.914 8.324-33.676 24.883-49.16 34.285l-1.824 1.121 1.125-1.824c9.215-15.199 26.051-39.336 34.285-49.25 12.535-14.969 32.273-28.488 41.02-28.113zm11.039 19.692c1.215 4.77 1.637 12.067.933 16.559-1.449 9.12-5.378 17.027-11.738 23.434-3.695 3.742-4.445 4.211-10.758 7.343-9.402 4.582-19.414 7.997-34.941 11.97-10.24 2.621-23.572 5.519-23.854 5.242-.14-.094.282-.469.891-.797 2.43-1.261 24.508-16.136 31.242-20.999 10.946-7.953 17.45-13.379 23.157-19.227 9.168-9.449 16-18.805 19.879-27.176l2.106-4.582 1.074 2.289c.563 1.266 1.45 3.93 2.012 5.942z"/>
  </g>

  <!-- Testo -->
  <text x="600" y="480" font-family="Georgia, serif" font-size="64" font-weight="bold" fill="white" text-anchor="middle">Cristian's Pastry</text>
  <text x="600" y="540" font-family="Georgia, serif" font-size="32" fill="white" text-anchor="middle" opacity="0.95">Dolci Artigianali tra Tradizione e Passione</text>
</svg>
